<?xml version="1.0" encoding="UTF-8"?>
<svg id="LOGOTYPO" xmlns="http://www.w3.org/2000/svg" viewBox="0 0 5000 5000">
  <defs>
    <style>
      .cls-1 {
        fill: #050409;
        stroke-width: 0px;
      }
    </style>
  </defs>
  <path class="cls-1" d="M2307.34,4284.45c14.74,20.4,25.82,40.83,32.11,63.54,12.58,45.43,9.65,90.29-10.09,132.74-38.07,81.87-102.09,130.33-192.61,139.3-39,3.87-78.54,2.92-117.84,3.03-98.65.3-197.29-.01-295.94-.16-8.48-.01-17.21,1.12-26.53-3.41,1.5-9.27,2.62-18.37,4.47-27.32,20.22-97.79,40.54-195.56,60.85-293.34,19.5-93.86,39-187.72,58.55-281.57,1.36-6.51,2.71-13.08,4.75-19.39,3.41-10.57,11.04-16.36,22.09-17.38,3.97-.37,7.99-.31,11.98-.3,116.64.23,233.28.43,349.93.76,24.7.07,49.33,1.93,73.44,7.46,51,11.7,85.42,41.76,99.73,92.89,7.18,25.64,5.21,51.44-.12,77.2-9.76,47.17-31.39,87.46-68.21,119.11-1.96,1.69-3.6,3.74-6.55,6.84ZM1852.41,4496.4c9.63,5.2,17.77,3.92,25.64,3.91,61.96-.06,123.93-.28,185.89-.44,21.99-.06,43.99.53,65.96-.21,47.4-1.59,85.27-40.62,86.12-87.97.6-33.32-14.51-52.94-47.13-59.24-13-2.51-26.45-3.55-39.71-3.65-61.96-.46-123.93-.44-185.89-.35-7.93.01-15.94.98-23.76,2.35-20.91,3.67-34.27,16.63-42.13,35.78-1.76,4.3-3.3,8.76-4.28,13.29-6.92,31.79-13.67,63.61-20.71,96.52ZM1909.49,4229.56c7.19,6.48,14.76,5.25,21.92,5.24,77.29-.04,154.57-.13,231.86-.35,7.3-.02,14.63-.75,21.9-1.57,15.82-1.8,29.17-8.93,40.41-19.99,15.33-15.09,23.59-33.83,26.11-54.86,2.9-24.14-8.37-41.26-31.22-49.47-12.75-4.58-26.02-5.37-39.39-5.39-69.29-.07-138.58-.14-207.87-.17-5.33,0-10.67.08-15.98.41-17.22,1.07-22.08,4.55-26.73,21.34-3.54,12.81-6.14,25.89-8.7,38.94-4.32,22.07-8.28,44.22-12.3,65.87Z"/>
  <path class="cls-1" d="M2883.25,4622.95c-65.99,0-131.99.25-197.98-.21-13.88-.1-28.17-1.17-41.55-4.62-53.45-13.78-84.42-64.49-73.66-120.27,8.7-45.11,18.4-90.02,27.77-135,16.71-80.17,34.29-160.17,50.03-240.52,12.09-61.72,49.81-101.43,104.09-128.07,13.22-6.49,27.58-9.74,42.45-10.28,29.96-1.08,59.91-3.16,89.87-3.24,105.99-.29,211.98.03,317.97.25,19.39.04,38.61,2.27,57.29,7.64,49.96,14.36,79.59,61.53,69.69,112.62-12.29,63.4-25.45,126.64-38.54,189.88-14.03,67.8-28.56,135.51-42.58,203.31-4.4,21.3-12.78,40.72-26.03,57.78-35.13,45.26-80.47,70.81-138.85,70.74-66.66-.09-133.32-.02-199.98-.02ZM3114.95,4498.42c27.08-129.55,54.04-258.51,80.91-387.48.37-1.79-.33-3.81-.55-5.82-7.09-3.69-14.56-2.07-21.73-2.09-117.96-.33-235.91-.54-353.87-.71-5.99,0-11.98.33-17.96.73-10.53.71-17.26,6.75-20.63,16.27-2.21,6.24-3.51,12.84-4.86,19.36-10.37,50.2-20.59,100.42-30.97,150.61-13.34,64.54-26.81,129.05-40.09,193.6-1.02,4.98-.94,10.19-1.37,15.21,16.35,2.44,388.12,2.83,411.1.32Z"/>
  <path class="cls-1" d="M917.25,4621.94c.29-4.49.13-7.73.76-10.82,13.25-64.57,26.54-129.14,39.94-193.69,20.72-99.75,41.56-199.47,62.3-299.21,6.91-33.25,13.61-66.54,20.6-99.77,1.5-7.14,3.63-14.18,5.86-21.14,2.68-8.35,8.63-13.56,17.28-14.72,8.55-1.14,17.21-1.93,25.83-1.95,58.66-.17,117.33-.11,176-.09,108.66.05,217.33.13,325.99.23,7.26,0,14.51.34,22.93.55.32,3.91,1.31,7.12.72,10.01-7,33.91-14.21,67.77-21.47,101.62-.55,2.55-1.82,4.95-3.18,8.51-4.95.47-10.07,1.39-15.19,1.39-121.99.03-243.99-.05-365.98-.1-12,0-24.01-.33-35.99.2-14.22.63-18.86,4.67-21.76,18.53-5.6,26.72-10.83,53.51-16.31,80.25-2.13,10.38-4.51,20.72-6.93,31.8,6.71,3.78,13.38,2.44,19.69,2.45,65.33.1,130.66.06,195.99.06,43.33,0,86.66-.03,130,.03,6.56,0,13.13.42,20.5.67,0,3.74.42,6.36-.06,8.8-6.19,31.36-12.5,62.69-18.79,94.03-.39,1.96-.64,3.96-1.26,5.85-2.05,6.26-6,10.28-12.99,10.43-5.33.11-10.66.26-15.99.26-100.66-.08-201.33-.18-301.99-.26-7.33,0-14.68-.27-21.99.14-13.62.77-19.12,4.99-22.67,18.2-2.76,10.27-4.53,20.81-6.7,31.24-4.87,23.47-9.76,46.93-14.56,70.42-1.46,7.14-2.65,14.33-3.95,21.38,5.52,5.04,11.73,3.19,17.37,3.21,51.33.16,102.66.09,154,.09,81.33,0,162.66-.03,243.99.05,7.17,0,14.54-1.07,21.75,1.73,0,3.86.56,7.24-.09,10.37-6.28,30.66-12.65,61.29-19.22,91.89-2.94,13.69-5.96,16.4-19.92,17.94-6.6.73-13.31.64-19.97.64-171.99-.05-343.99-.13-515.98-.26-5.85,0-11.71-.59-18.56-.97Z"/>
  <path class="cls-1" d="M583.55,4382.24c44.55,80.67,88.97,158.49,133.24,238.5-4.96,1.08-7.36,2.04-9.77,2.05-38.64.24-77.29.24-115.93.58-13.31.11-23.03-5.4-29.63-16.76-2.01-3.45-3.93-6.96-5.88-10.44-32.24-57.51-64.48-115.02-96.72-172.52-1.3-2.32-2.66-4.62-3.9-6.97-7.65-14.54-19.69-20.45-36.03-20.14-31.97.6-63.96.46-95.94.48-5.85,0-11.7-.68-19.16-1.15,7.38-40.56,15.14-79.48,24.12-118.85,6.06-.4,11.27-1.06,16.47-1.05,48.64.07,97.29.15,145.93.45,16.05.1,32.06-.04,47.56-4.61,43.68-12.89,73.24-40.5,83.71-85.33,9.75-41.77-19.43-79.64-62.07-82.66-10.62-.75-21.31-.63-31.97-.65-67.97-.12-135.94-.19-203.91-.22-26.64,0-26.57.23-32.12,26.94-25.97,125.12-52.06,250.21-78.12,375.31-7.19,34.53-14.38,69.07-21.7,103.58-.8,3.77-2.5,7.35-3.65,10.66-14.47,2.11-89.85,3.23-118.53,1.73-3.17-.17-6.3-1.24-10.17-2.05.6-5.96.66-11.28,1.72-16.41,17.66-85.38,35.49-170.73,53.2-256.11,22.04-106.23,44-212.47,65.99-318.71,1.62-7.82,2.91-15.72,4.78-23.48,4.31-17.86,11.01-23.28,29.11-24.02,2.66-.11,5.33-.05,8-.04,116.61.19,233.23.1,349.84.84,19.85.12,40.19,1.6,59.42,6.17,66.15,15.72,105.79,58.73,120.53,124.43,10.78,48.06.68,94.05-18.25,138.33-22.46,52.55-61.11,89.73-112.16,114.47-11.93,5.78-24.05,11.17-38.01,17.63Z"/>
  <path class="cls-1" d="M3756.37,3980.67c-5.75,37.49-14.47,71.6-21.28,106.07-6.71,33.95-14.36,67.72-21.51,101.59-7.29,34.52-14.49,69.06-21.71,103.6-7.08,33.88-14.09,67.78-21.21,101.66-7.25,34.49-14.61,68.95-21.96,103.58,4.89,4.62,10.39,3.3,15.36,3.32,40.66.13,81.31.06,121.97.08,64.65.04,129.3.11,193.95.14,24.91.01,27.03-1.81,31.99-25.42,28.88-137.46,57.82-274.91,86.7-412.37,3.28-15.64,6.22-31.35,9.38-47.01.79-3.91,1.72-7.8,2.81-11.64,5.5-19.32,9.46-22.83,29.2-23.09,31.99-.43,63.98-.33,95.97-.31,3.16,0,6.31.99,10.22,1.64-.27,15.47-4.78,29.47-7.71,43.6-31.58,152.54-63.77,304.95-95.2,457.52-11.77,57.11-45.23,96.72-95.5,123.52-20.35,10.85-42.43,15.39-65.48,15.47-39.32.13-78.64.52-117.96.54-74.65.03-149.29-.04-223.94-.3-12.63-.04-25.3-.76-37.87-2.03-44.28-4.46-92.16-46.15-87.48-108.44.94-12.56,3.38-25.08,5.97-37.43,31.78-151.12,63.71-302.22,95.65-453.31,1.79-8.46,3.73-16.9,6.14-25.2,2.66-9.18,8.79-15.04,18.69-15.29,37.25-.93,74.49-.63,114.82-.48Z"/>
  <path class="cls-1" d="M4377.84,4619.46c2.4-12.7,4.63-25.67,7.33-38.54,31.77-151.76,63.64-303.5,95.43-455.26,8.18-39.08,16.16-78.2,24.22-117.3,5.25-25.48,8.59-28.07,34.61-27.9,26.65.17,53.3.1,79.95.13,6.57,0,13.14,0,19.75,0,4.27,7.68,1.11,14.21-.12,20.29-6.89,33.9-14.38,67.69-21.5,101.55-20.55,97.67-41.03,195.36-61.53,293.05-6.01,28.65-12.03,57.31-17.98,85.98-1.07,5.16-1.78,10.39-2.87,16.9,4.34.82,7.94,2,11.56,2.08,11.99.26,23.98.12,35.98.12,114.6,0,229.19,0,343.79.03,7.23,0,14.45.38,22.97.63,0,4.09.47,7.22-.07,10.17-5.12,27.48-10.4,54.92-15.66,82.37-.63,3.27-1.24,6.55-2.1,9.76-3.91,14.75-8.24,18.31-23.69,19.31-4.65.3-9.32.12-13.99.12-164.57,0-329.13.04-493.7-.12-7.01,0-14.59,2.24-22.36-3.37Z"/>
  <path class="cls-1" d="M4458.99,3654.97c-5.04.37-9.61.98-14.2,1.01-150.64,1.24-301.29,2.43-451.93,3.62-6,.05-12.01-.27-18,.06-20.22,1.11-37.69-5.38-53.99-17.21-49.61-36.02-99.64-71.48-149.4-107.3-185-133.14-369.96-266.33-554.92-399.53-11.36-8.18-22.56-16.57-33.76-24.96-8.52-6.38-17.04-6.74-25.74-.48-5.95,4.28-11.91,8.55-17.85,12.85-217.97,158.07-436.03,316.01-653.73,474.45-17.09,12.44-34.58,17.71-55.49,18.08-195.94,3.44-391.88,7.62-587.82,11.38-107.3,2.06-214.61,3.51-321.92,5.61-167.95,3.28-335.88,6.98-503.83,10.29-102.63,2.02-205.28,3.5-307.91,5.49-121.29,2.35-242.58,5-363.88,7.49-66.64,1.37-133.29,2.7-199.93,4-8.59.17-17.19.02-27.16.02.57-5.21.64-8.97,1.42-12.57,16.9-78.09,33.75-156.2,50.88-234.24,27.26-124.22,54.68-248.39,82.07-372.58,27.39-124.18,54.83-248.35,82.23-372.53,27.39-124.18,54.79-248.35,82.13-372.54,25.9-117.69,51.7-235.4,77.6-353.1,26.18-118.99,52.35-237.99,78.63-356.96,27.14-122.87,54.48-245.7,81.61-368.58,27.42-124.18,54.7-248.39,82.02-372.59,27.46-124.85,54.88-249.72,82.32-374.58,4.43-20.16,8.88-40.32,13.3-60.48.57-2.6.86-5.28,1.55-7.84,4.57-16.94,8.86-20.3,26.59-20.9,4-.13,8-.04,12-.04,75.33-.05,150.66-.12,225.99-.13,571.31-.06,1142.61-.17,1713.92-.12,252.65.02,505.31.35,757.96.58,56,.05,111.99-.04,167.99.48,164.3,1.54,323.33,29.85,474.93,94.88,131.84,56.55,249.83,134.12,352.48,234.51,119.77,117.13,201.92,256.99,250.52,416.95,15.32,50.42,27.46,101.58,34.99,153.73,5.44,37.62,8.14,75.52,8.74,113.55.92,58.03-1.39,115.92-6.77,173.73-8.69,93.19-25.79,184.7-55.01,273.64-93.47,284.53-272.22,498.85-533.25,644.86-26.13,14.62-53.4,27.2-80.16,40.69-4.75,2.4-9.74,4.37-14.39,6.94-13.76,7.61-16.76,13.78-13.99,29.45,1.04,5.88,2.88,11.62,4.5,17.39,63.77,226.2,127.59,452.38,191.33,678.59,33.94,120.47,67.78,240.97,101.56,361.49,2.99,10.67,7.69,21.16,5.76,33.45ZM4059.73,2502.48c19.94-9.43,37.89-18.05,55.94-26.44,51.97-24.15,103.28-49.53,152.36-79.26,139.66-84.62,255.87-193.63,342.69-332.43,112.23-179.43,166.78-376.22,172.72-587.05,1.77-62.73-2.72-125.17-10.42-187.45-7.22-58.39-19.55-115.6-39.1-171.02-66.78-189.29-181.92-342.75-346.02-458.18-150.49-105.85-318.77-167.41-500.66-192.09-67.42-9.15-135.33-12.27-203.4-12.23-380.62.18-761.23.22-1141.85.24-535.93.03-1071.86,0-1607.79,0-6.67,0-13.34-.15-20,.06-4.49.14-8.97.81-13.66,1.26-1.62,5.23-3.31,9.58-4.3,14.07-12.11,54.6-24.12,109.22-36.14,163.84-29.9,135.9-59.75,271.81-89.68,407.7-27.5,124.84-55.1,249.65-82.62,374.48-27.23,123.53-54.42,247.07-81.64,370.61-27.51,124.83-55.04,249.66-82.55,374.49-27.08,122.88-54.12,245.77-81.21,368.64-26.23,118.97-52.5,237.93-78.75,356.9-27.25,123.52-54.53,247.03-81.75,370.55-22.64,102.72-45.25,205.45-67.79,308.19-.78,3.57-.61,7.34-.96,12.16,7.93.29,14.51.76,21.09.74,19.33-.06,38.66-.15,57.99-.53,177.26-3.5,354.52-7.17,531.78-10.57,152.61-2.93,305.22-5.6,457.83-8.32,175.27-3.12,350.55-6,525.81-9.31,132.61-2.51,265.22-5.51,397.83-8.35,68.64-1.47,137.27-3.41,205.91-4.41,18.19-.26,33.29-5.68,47.94-16.4,87.7-64.09,175.87-127.54,263.77-191.35,138.6-100.61,277.12-201.33,415.71-301.96,6.45-4.68,13.12-9.12,19.97-13.2,6.8-4.04,14.1-4.08,20.95-.05,6.29,3.71,12.41,7.76,18.34,12.03,248.71,179.2,497.45,358.36,745.93,537.88,17.02,12.3,34.5,18.42,55.55,18,68.64-1.36,137.29-1.92,205.94-2.41,43.99-.31,87.98.11,131.98,0,7.19-.02,14.64,1.49,23.98-3.05-24.34-89.38-50.05-178.68-74.96-268.19-24.82-89.15-49.93-178.21-74.95-267.3-25.2-89.73-50.44-179.45-75.66-269.18-25.2-89.67-50.38-179.34-76.18-271.15Z"/>
  <path class="cls-1" d="M4274.71,3519.37c-6.28,0-11.53,0-16.79,0-80.66-.07-161.33-.4-241.99-.01-19.58.09-36.04-5.63-51.89-17.06-242.21-174.6-484.64-348.89-726.99-523.28-16.77-12.07-33.38-24.36-50.08-36.52-3.23-2.35-6.44-4.74-9.82-6.85-4.91-3.07-10.13-3.41-15.11-.28-5.63,3.54-11.17,7.24-16.55,11.14-158.09,114.64-316.16,229.3-474.22,343.98-75.52,54.79-151.02,109.63-226.53,164.43-4.31,3.13-8.82,6.01-13.08,9.21-11.62,8.74-24.64,12.39-39.18,12.62-43.99.68-87.97,2.03-131.95,2.87-127.96,2.47-255.93,4.92-383.89,7.18-113.97,2.02-227.95,3.41-341.92,5.73-151.95,3.1-303.89,6.93-455.83,10.25-91.3,1.99-182.61,3.71-273.92,5.35-135.96,2.45-271.93,4.8-407.89,7.03-29.32.48-58.66.3-87.99.29-5.22,0-10.43-.68-16.64-1.12.63-5.55.75-10.16,1.71-14.58,13.33-61.83,26.65-123.67,40.23-185.44,24.44-111.19,49.05-222.35,73.59-333.52,27.41-124.18,54.82-248.35,82.23-372.53,27.26-123.53,54.59-247.05,81.77-370.6,26.04-118.35,51.88-236.74,77.89-355.1,26.01-118.36,52.08-236.7,78.18-355.03,27.25-123.54,54.53-247.07,81.85-370.59,28.76-130.03,57.67-260.02,86.33-390.06,16.34-74.13,32.3-148.34,48.5-222.49.99-4.54,2.16-9.14,4-13.38,2.84-6.54,7.91-10.69,15.33-11.05,5.99-.29,11.99-.36,17.99-.35,62.66.04,125.33.17,187.99.17,838.64.01,1677.28.03,2515.93-.06,44.69,0,89.31,1,133.84,4.81,206.73,17.65,394.91,85.28,561.26,210.27,154.15,115.83,254.39,268.46,306.77,453.5,28.47,100.58,36.18,202.96,29.87,306.84-2.18,35.93-4.66,71.8-9.56,107.49-42.3,308.07-185.68,553.51-448.87,724.77-62.23,40.49-128.77,72.5-197.46,100.3-17.9,7.24-35.75,14.62-53.6,21.99-4.31,1.78-8.51,3.79-12.8,5.62-8.44,3.6-12.58,10.43-9.39,21.02,8.24,27.41,15.54,55.11,23.29,82.67,87.38,310.86,174.8,621.71,262.05,932.6,2.28,8.11,6.61,16.17,3.38,27.79ZM2680.63,3190.15c12.41-4.17,19.18-10.77,26.58-16.15,145.53-105.79,291.02-211.63,436.39-317.64,20.3-14.81,27.65-17.54,51.15-.23,92.82,68.37,186.07,136.15,279.26,204.01,56.02,40.8,112.2,81.37,168.39,121.94,3.86,2.79,7.39,7.27,13.68,6.31.92-9.45-3.25-16.62-5.65-24.02-56.11-172.84-112.42-345.62-168.69-518.41-8.8-27.03-8.09-29.09,15.6-46.27,96.56-70.03,193.15-140.01,289.65-210.11,51.22-37.21,102.31-74.58,153.35-112.03,5.11-3.75,11.53-6.42,14.55-13.68-7.84-4.56-15.93-3.25-23.69-3.27-82.65-.16-165.3-.3-247.95-.22-95.31.1-190.62.45-285.93.62-7.99.01-15.99-.23-23.96-.75-9.42-.62-16.43-5.63-20.59-13.84-3.29-6.49-5.82-13.43-8.06-20.38-44.24-136.81-88.36-273.66-132.56-410.48-11.46-35.47-23.09-70.89-34.68-106.32-1.93-5.9-3.02-12.33-9.05-17.28-5.31,6.81-6.41,14.17-8.61,20.93-56.29,172.8-112.48,345.63-168.72,518.44-1.65,5.06-3.37,10.11-5.44,15-3.7,8.71-10.11,13.89-19.91,14.08-7.33.15-14.66.3-21.99.3-176.63-.04-353.26-.11-529.88-.15-7.33,0-14.66.05-21.98.42-3.13.16-6.7.52-7.29,6.58,8.26,6.29,17.03,13.26,26.09,19.83,141.91,102.83,283.86,205.61,425.78,308.42,4.85,3.51,9.67,7.12,14.21,11.01,7.64,6.56,11.09,15.05,9.31,24.99-1.29,7.17-3.27,14.26-5.53,21.19-55.23,169.63-110.55,339.24-165.79,508.87-2.65,8.14-4.69,16.48-8.02,28.27Z"/>
</svg>