<svg xmlns="http://www.w3.org/2000/svg" viewBox="0 0 5000 5000">
  <defs fill="#f3f3f3">
    <style>
      .cls-1 {
        fill: #f3f3f3;
        stroke-width: 0px;
      }
    </style>
  </defs>
  <g id="EDGE">
    <path class="cls-1" d="M59.85,4189.67c3.07-15.19,6-30.79,9.4-46.29,42.51-193.8,84.93-387.61,127.68-581.35,47.2-213.9,94.87-427.69,142.05-641.59,36.85-167.09,73.07-334.32,109.9-501.42,47.3-214.56,95.1-429,142.38-643.56,50.01-226.91,99.66-453.91,149.49-680.86,18.56-84.54,37.17-169.07,55.75-253.6,6.35-28.91,8.26-30.44,38.86-30.68,13.33-.1,26.67-.09,40-.1,600.68-.22,1201.36-.71,1802.03-.55,372.01.1,744.01,1.26,1116.02,1.77,138.35.19,273.53,20.19,404.72,64.53,171.94,58.12,323.35,150.34,452.85,277.54,120.33,118.2,203.4,259.29,253.3,420.16,17.39,56.07,30.97,113.03,39.11,171.18,5.27,37.65,7.54,75.6,8.28,113.6,1.12,57.37-1.52,114.59-6.6,171.75-9.22,103.93-28.77,205.78-62.74,304.49-96.23,279.58-273.53,492.46-529.54,639.82-32.86,18.91-67.44,34.85-101.22,52.16-5.33,2.73-10.85,5.14-15.96,8.22-8.93,5.39-12.58,13.56-10.79,23.82.91,5.23,2.39,10.38,3.84,15.5,29.86,105.71,59.86,211.38,89.62,317.12,71.79,255.05,143.49,510.13,215.17,765.21,2.68,9.54,4.72,19.26,7.43,30.41-6.56.7-11.6,1.65-16.64,1.7-108.66,1.07-217.33,2.14-325.99,3-50.67.4-101.36-.46-151.99.86-25.98.68-47.61-6.51-68.65-21.72-167.44-121.04-335.41-241.35-503.09-362.05-82.22-59.18-164.18-118.72-246.26-178.1-2.16-1.56-4.34-3.09-6.47-4.7-8.51-6.47-17.11-6.59-25.8-.4-4.89,3.48-9.76,6.97-14.62,10.5-226.62,164.32-453.32,328.53-679.67,493.22-16.52,12.02-33.45,17.56-53.62,17.83-91.99,1.22-183.97,3.07-275.95,4.89-106.64,2.1-213.28,4.53-319.93,6.58-105.98,2.04-211.97,3.61-317.95,5.69-170.63,3.35-341.26,6.97-511.88,10.43-71.98,1.46-143.97,2.9-215.96,4.22-97.31,1.79-194.62,3.31-291.93,5.22-117.98,2.32-235.94,4.96-353.92,7.38-26.66.55-53.33.82-79.99,1.01-6.53.05-13.34,1.52-20.73-2.84ZM157.37,4107.42c9.89,5.7,18.06,4.1,25.89,3.98,76.65-1.12,153.3-2.21,229.95-3.74,167.29-3.34,334.58-7.12,501.87-10.37,157.3-3.06,314.61-5.51,471.91-8.53,195.29-3.76,390.57-7.84,585.85-11.77,151.96-3.05,303.92-6.26,455.89-8.88,16.85-.29,30.91-4.78,44.38-14.77,38.54-28.59,77.64-56.41,116.48-84.59,194.72-141.31,389.43-282.65,584.15-423.96,6.47-4.69,12.92-9.43,19.64-13.76,9.93-6.4,20.15-6.33,30.08.04,6.16,3.95,12.09,8.27,18.03,12.56,207.02,149.33,414.02,298.68,621.05,447.99,49.73,35.86,99.75,71.33,149.25,107.51,14.14,10.34,29.21,15.5,46.49,15.08,6.66-.16,13.33.03,20-.06,40-.54,79.99-1.45,119.99-1.62,74-.31,148-.16,222-.35,5.64-.01,11.8,1.74,18.17-3.35-8.53-30.51-17.12-61.21-25.7-91.91-8.61-30.77-17.18-61.55-25.83-92.32-8.64-30.76-17.39-61.5-26.01-92.26-8.63-30.77-17.11-61.58-25.76-92.34-8.64-30.76-17.46-61.47-26.09-92.24-8.63-30.77-17.06-61.59-25.69-92.36-8.81-31.41-17.79-62.77-26.62-94.17-8.65-30.76-17.19-61.55-25.83-92.32-8.64-30.76-17.39-61.49-26.02-92.26-8.63-30.77-17.11-61.58-25.75-92.34-8.64-30.76-17.72-61.41-26.04-92.26-8.28-30.7-18.23-60.99-25.19-93.19,16.47-7.86,31.95-15.41,47.57-22.67,50.14-23.32,99.98-47.21,147.84-75.05,122.97-71.52,229.73-161.69,316.8-274.58,69.77-90.45,122.58-190.09,161.27-297.43,46.73-129.67,71.04-263.31,71.86-401.19.31-52.7-2.05-105.2-7.74-157.65-6.91-63.81-18.84-126.49-39.34-187.3-66.85-198.24-185.14-359.26-355.56-480.21-184.64-131.04-392.39-197.62-617.65-210.85-47.21-2.77-94.6-3.6-141.91-3.62-442-.18-883.99.05-1325.99.08-496.66.03-993.32-.02-1489.99-.04-8.61,0-17.22,0-25.66,0-1.81,3.37-3.66,5.55-4.2,8.01-235.93,1070.05-471.78,2140.12-707.81,3211.06Z" fill="#f3f3f3"/>
  </g>
  <g id="LOGO">
    <path class="cls-1" d="M239.21,4045.85c1.14-8.46,1.52-14.34,2.76-20.04,21.21-97.58,42.41-195.16,63.84-292.69,27.42-124.84,55.02-249.64,82.57-374.46,27.12-122.86,54.3-245.71,81.4-368.58,26.24-118.97,52.41-237.95,78.61-356.92,27.35-124.18,54.7-248.35,82.03-372.53,25.9-117.68,51.72-235.38,77.68-353.04,25.95-117.67,52-235.31,78.03-352.96,24.6-111.15,49.35-222.26,73.83-333.44,17.61-79.97,34.88-160.01,52.36-240.01.85-3.89,2-7.73,3.3-11.5,2.92-8.47,9-12.98,17.92-13.41,5.32-.26,10.66-.23,15.99-.23,931.88.04,1863.75.12,2795.63.05,54.73,0,109.29,2.63,163.64,8.56,207.5,22.65,395.32,95.49,560.42,223.84,147.26,114.48,245.08,263.08,298.34,441.42,14.12,47.29,25.11,95.31,30.99,144.34,2.54,21.15,4.35,42.45,5.15,63.74,2.26,59.99,1.23,119.96-4.1,179.8-15.59,175.16-64.28,339.72-157.55,489.88-85,136.85-198.38,244.69-335.64,328.18-56.52,34.38-116.13,62.33-177.19,87.44-19.71,8.1-39.41,16.22-59.11,24.33-3.69,1.52-7.47,2.88-11.04,4.66-11.12,5.56-13.18,10-10.45,22.58.99,4.55,2.44,8.99,3.7,13.48,32.51,115.32,65.1,230.63,97.52,345.98,64.65,230.06,129.21,460.15,193.75,690.25,1.95,6.95,3.27,14.08,5.22,22.57-5.43,1.08-9.67,2.6-13.94,2.66-20.66.3-41.33.28-61.99.26-63.32-.08-126.65-.19-189.97-.34-6-.01-11.99-.31-17.99-.46-13.25-.32-24.22-6.12-34.7-13.71-37.24-26.97-74.68-53.67-112-80.53-220.14-158.43-440.28-316.86-660.39-475.33-11.9-8.57-23.53-17.5-35.37-26.14-13.97-10.19-18.07-10.49-32.05-.46-31.41,22.52-62.58,45.39-93.85,68.09-208.16,151.11-416.33,302.23-624.51,453.32-9.17,6.65-18.55,13.01-27.69,19.7-11.14,8.14-23.73,11.83-37.31,12.69-2.66.17-5.33.17-7.99.22-81.31,1.48-162.61,2.95-243.92,4.42-146.62,2.66-293.24,5.27-439.86,8-139.95,2.61-279.9,5.21-419.85,8.1-117.29,2.42-234.56,5.54-351.85,7.86-151.26,3-302.53,5.65-453.8,8.17-75.31,1.26-150.63,1.92-225.94,2.78-7.25.08-14.51-.33-24.62-.59ZM3708.76,3712.68c-.51-6.22-.18-10.05-1.22-13.45-4.29-14-9.01-27.87-13.54-41.79-55.02-169.03-110.04-338.05-165.02-507.09-1.85-5.69-3.7-11.42-4.85-17.28-1.67-8.46.61-15.9,7.63-21.37,5.25-4.09,10.6-8.07,15.99-11.99,133.23-96.69,266.48-193.35,399.69-290.07,21.03-15.27,41.94-30.71,62.75-46.3,2.78-2.08,7.72-3.47,5.51-9.88-9.31-2.18-19.23-1.4-29.04-1.39-181.33.06-362.66.2-543.99.3-8,0-16,0-23.99-.4-10.94-.55-19.01-6.11-23.67-15.83-3.15-6.56-5.42-13.58-7.67-20.53-57.03-176.07-113.99-352.17-171.05-528.23-2.62-8.08-6.06-15.89-10.11-26.39-2.9,6.97-4.92,11.1-6.36,15.42-7.79,23.36-15.52,46.75-23.12,70.18-51.21,157.66-102.38,315.34-153.59,473.01-1.85,5.69-3.88,11.33-6.03,16.92-3.72,9.62-10.59,15.18-21.12,15.47-7.99.22-16,.24-23.99.24-182-.05-363.99-.11-545.99-.15-7.99,0-16,.09-23.98.54-2.25.13-4.42,1.66-7.76,3.01,7.08,9.34,15.93,14.21,23.86,19.97,147.28,106.84,294.64,213.56,441.98,320.31,4.86,3.52,9.71,7.05,14.46,10.7,11.88,9.11,16.06,20.8,11.57,35.3-1.38,4.45-2.75,8.91-4.19,13.34-46.85,143.68-93.74,287.35-140.55,431.05-11.96,36.71-23.72,73.49-35.37,110.31-1.26,3.98-1.14,8.4-2.06,15.9,10.8-7.54,19.01-13.07,27-18.88,148.74-108.22,297.46-216.48,446.21-324.7,5.92-4.31,11.93-8.53,18.21-12.29,7.5-4.49,15.41-4.11,22.8.29,5.71,3.4,11.05,7.43,16.44,11.35,151.95,110.61,303.88,221.25,455.84,331.85,5.28,3.84,10.77,7.38,18.35,12.55Z" fill="#f3f3f3"/>
  </g>
</svg>